<svg xmlns="http://www.w3.org/2000/svg" width="76.672" height="12.068" viewBox="0 0 76.672 12.068">
  <g id="client_name_and_picture" data-name="client name and picture" transform="translate(-8209 150)">
    <path id="star_2_" data-name="star (2)" d="M12.56,5.052a.668.668,0,0,0-.576-.46L8.35,4.262,6.912.9A.669.669,0,0,0,5.681.9L4.244,4.262l-3.635.33a.67.67,0,0,0-.38,1.171l2.747,2.41-.81,3.569a.668.668,0,0,0,1,.723L6.3,10.59l3.134,1.874a.669.669,0,0,0,1-.723l-.81-3.569,2.747-2.409a.67.67,0,0,0,.2-.711Zm0,0" transform="translate(8209 -150.491)" fill="#ffc107"/>
    <path id="star_2_2" data-name="star (2)" d="M12.56,5.052a.668.668,0,0,0-.576-.46L8.35,4.262,6.912.9A.669.669,0,0,0,5.681.9L4.244,4.262l-3.635.33a.67.67,0,0,0-.38,1.171l2.747,2.41-.81,3.569a.668.668,0,0,0,1,.723L6.3,10.59l3.134,1.874a.669.669,0,0,0,1-.723l-.81-3.569,2.747-2.409a.67.67,0,0,0,.2-.711Zm0,0" transform="translate(8225.02 -150.491)" fill="#ffc107"/>
    <path id="star_2_3" data-name="star (2)" d="M12.56,5.052a.668.668,0,0,0-.576-.46L8.35,4.262,6.912.9A.669.669,0,0,0,5.681.9L4.244,4.262l-3.635.33a.67.67,0,0,0-.38,1.171l2.747,2.41-.81,3.569a.668.668,0,0,0,1,.723L6.3,10.59l3.134,1.874a.669.669,0,0,0,1-.723l-.81-3.569,2.747-2.409a.67.67,0,0,0,.2-.711Zm0,0" transform="translate(8241.04 -150.491)" fill="#ffc107"/>
    <path id="star_2_4" data-name="star (2)" d="M12.56,5.052a.668.668,0,0,0-.576-.46L8.35,4.262,6.912.9A.669.669,0,0,0,5.681.9L4.244,4.262l-3.635.33a.67.67,0,0,0-.38,1.171l2.747,2.41-.81,3.569a.668.668,0,0,0,1,.723L6.3,10.59l3.134,1.874a.669.669,0,0,0,1-.723l-.81-3.569,2.747-2.409a.67.67,0,0,0,.2-.711Zm0,0" transform="translate(8257.06 -150.491)" fill="#ffc107"/>
    <path id="star_2_5" data-name="star (2)" d="M12.56,5.052a.668.668,0,0,0-.576-.46L8.35,4.262,6.912.9A.669.669,0,0,0,5.681.9L4.244,4.262l-3.635.33a.67.67,0,0,0-.38,1.171l2.747,2.41-.81,3.569a.668.668,0,0,0,1,.723L6.3,10.59l3.134,1.874a.669.669,0,0,0,1-.723l-.81-3.569,2.747-2.409a.67.67,0,0,0,.2-.711Zm0,0" transform="translate(8273.079 -150.491)" fill="#ffc107"/>
  </g>
</svg>
