<svg xmlns="http://www.w3.org/2000/svg" width="99.156" height="87.405" viewBox="0 0 99.156 87.405">
  <g id="icon" transform="translate(-799.968 -1177.092)">
    <path id="Path_940" data-name="Path 940" d="M201.48,144.21l.033-2.222a1.878,1.878,0,0,0-2.791-1.668l-1.941,1.083a1.877,1.877,0,0,0-.048,3.251l1.907,1.139A1.877,1.877,0,0,0,201.48,144.21Z" transform="translate(685.858 1078.465)" fill="#55dffc"/>
    <path id="Path_938" data-name="Path 938" d="M79.3,75.176c-10.9,6.777-23,18.81-25.817,31.7C46.9,137,85.8,155.32,110.2,154.892c15.505-.272,31.53-8.561,37.6-22.832,3.948-9.286,3.347-20.063,0-29.583C137.142,72.154,107.908,57.383,79.3,75.176Z" transform="translate(747.226 1109.598)" fill="#ecfbff"/>
    <path id="Path_941" data-name="Path 941" d="M215.71,154.3l-3.768-2.67a3.9,3.9,0,0,0-6.14,2.821l-.429,4.6a3.9,3.9,0,0,0,5.513,3.907l4.2-1.927A3.9,3.9,0,0,0,215.71,154.3Z" transform="translate(681.769 1073.82)" fill="#55dffc"/>
  </g>
</svg>
