<svg xmlns="http://www.w3.org/2000/svg" xmlns:xlink="http://www.w3.org/1999/xlink" width="295.28" height="226.854" viewBox="0 0 295.28 226.854">
  <defs>
    <clipPath id="clip-path">
      <path id="Clip_2" data-name="Clip 2" d="M52.23,18.365c3.415,4.065,9.557,11.372,7.222,16.649-4.79,10.821-45.215,13.088-56.281-6.8C-.911,20.878-1.507,9.607,4.089,4" transform="translate(0.323 0.208)" fill="none"/>
    </clipPath>
    <linearGradient id="linear-gradient" x1="0.631" y1="1.406" x2="0.377" y2="-0.2" gradientUnits="objectBoundingBox">
      <stop offset="0" stop-color="#d6e6fd"/>
      <stop offset="1" stop-color="#d1e2fd"/>
    </linearGradient>
    <clipPath id="clip-path-2">
      <path id="Clip_4" data-name="Clip 4" d="M259.417,1.8c26.994,10.77,43.382,46.455,32.418,86.466a115.982,115.982,0,0,1-26.593,47.5L0,135.931c7.194-26.278,21.043-61.155,48.986-69.858,24.141-7.52,24.723,11.045,54.129,15.369C180.681,92.846,217.018-15.113,259.417,1.8Z" transform="translate(0 0.567)" fill="none"/>
    </clipPath>
    <linearGradient id="linear-gradient-2" x1="-0.005" y1="0.956" x2="0.969" y2="0.447" xlink:href="#linear-gradient"/>
    <clipPath id="clip-path-3">
      <path id="Clip_10" data-name="Clip 10" d="M0,4.465A13.645,13.645,0,0,0,19.459,3.72h0A13.628,13.628,0,0,0,10.1,0h0A13.654,13.654,0,0,0,0,4.465" transform="translate(0.802 0.686)" fill="none"/>
    </clipPath>
    <linearGradient id="linear-gradient-3" x1="0.741" y1="-0.125" x2="0.259" y2="1.125" gradientUnits="objectBoundingBox">
      <stop offset="0" stop-color="#2d419a"/>
      <stop offset="1" stop-color="#363182"/>
    </linearGradient>
    <clipPath id="clip-path-4">
      <path id="Clip_14" data-name="Clip 14" d="M0,0H7.5V18.4H0Z" transform="translate(0.477 0.395)" fill="none"/>
    </clipPath>
    <clipPath id="clip-path-5">
      <path id="Clip_16" data-name="Clip 16" d="M0,4.466A11.269,11.269,0,0,0,17.347,3.72h0A11.463,11.463,0,0,0,9,0H9A11.608,11.608,0,0,0,0,4.466" transform="translate(0.561 0.439)" fill="none"/>
    </clipPath>
    <linearGradient id="linear-gradient-4" x1="0.741" y1="-0.125" x2="0.259" y2="1.125" xlink:href="#linear-gradient-3"/>
    <clipPath id="clip-path-6">
      <path id="Clip_24" data-name="Clip 24" d="M4.046.222A5.6,5.6,0,0,0,.221,7.152h0a5.6,5.6,0,0,0,6.931,3.825h0a5.6,5.6,0,0,0,3.825-6.931h0A5.6,5.6,0,0,0,5.6,0h0A5.582,5.582,0,0,0,4.046.222" transform="translate(0.563 0.057)" fill="none"/>
    </clipPath>
    <linearGradient id="linear-gradient-5" x1="0.639" y1="0.98" x2="0.361" y2="0.02" gradientUnits="objectBoundingBox">
      <stop offset="0" stop-color="#fd9170"/>
      <stop offset="1" stop-color="#fdd4c3"/>
    </linearGradient>
    <clipPath id="clip-path-7">
      <path id="Clip_26" data-name="Clip 26" d="M4.046.222A5.6,5.6,0,0,0,.221,7.154h0a5.6,5.6,0,0,0,6.933,3.824h0a5.6,5.6,0,0,0,3.823-6.931h0A5.6,5.6,0,0,0,5.6,0h0A5.618,5.618,0,0,0,4.046.222" transform="translate(0.107 0.546)" fill="none"/>
    </clipPath>
    <linearGradient id="linear-gradient-6" x1="0.639" y1="0.98" x2="0.361" y2="0.02" xlink:href="#linear-gradient-5"/>
    <clipPath id="clip-path-8">
      <path id="Clip_34" data-name="Clip 34" d="M0,1.528V75.594a1.515,1.515,0,0,0,1.441,1.528h0l74,2.877A1.513,1.513,0,0,0,77,78.471h0V2.966a1.515,1.515,0,0,0-1.469-1.529h0L1.527,0H1.5A1.513,1.513,0,0,0,0,1.528" fill="none"/>
    </clipPath>
    <linearGradient id="linear-gradient-7" x1="1.815" y1="0.5" x2="-0.095" y2="0.5" gradientUnits="objectBoundingBox">
      <stop offset="0" stop-color="#5b75c8"/>
      <stop offset="1" stop-color="#2d419a"/>
    </linearGradient>
    <clipPath id="clip-path-9">
      <path id="Clip_36" data-name="Clip 36" d="M28.886,0a.158.158,0,0,0-.073.018h0L.081,14.527a.143.143,0,0,0,.072.271h0L76.4,16.15a.163.163,0,0,0,.091-.026h0L100.934.263A.143.143,0,0,0,100.845,0H28.886Z" transform="translate(0 0.708)" fill="none"/>
    </clipPath>
    <linearGradient id="linear-gradient-8" x1="1.815" y1="0.5" x2="-0.095" y2="0.5" gradientUnits="objectBoundingBox">
      <stop offset="0" stop-color="#5b75c8"/>
      <stop offset="1" stop-color="#d1e2fd"/>
    </linearGradient>
    <clipPath id="clip-path-10">
      <path id="Clip_2-2" data-name="Clip 2" d="M24.754.028.065,17.368A.155.155,0,0,0,0,17.5H0v76.35A.155.155,0,0,0,.156,94h0a.154.154,0,0,0,.114-.052h0L24.96,66.494a.158.158,0,0,0,.04-.1h0V.155A.155.155,0,0,0,24.844,0h0a.158.158,0,0,0-.089.028" fill="none"/>
    </clipPath>
    <linearGradient id="linear-gradient-9" x1="0.5" y1="1.815" x2="0.5" y2="-0.095" xlink:href="#linear-gradient-8"/>
  </defs>
  <g id="编组_4" data-name="编组 4" transform="translate(0 -0.395)">
    <g id="编组_3" data-name="编组 3">
      <g id="编组" transform="translate(0 59)" opacity="0.4">
        <g id="编组-2" data-name="编组" transform="translate(44.779)">
          <path id="Clip_2-3" data-name="Clip 2" d="M52.23,18.365c3.415,4.065,9.557,11.372,7.222,16.649-4.79,10.821-45.215,13.088-56.281-6.8C-.911,20.878-1.507,9.607,4.089,4" transform="translate(0.323 0.208)" fill="none"/>
          <g id="编组-3" data-name="编组" clip-path="url(#clip-path)">
            <path id="Fill_1" data-name="Fill 1" d="M59.452,35.014c-4.79,10.821-45.215,13.088-56.281-6.8C-.911,20.878-1.507,9.607,4.089,4,13.6-5.519,39.328,3.011,52.23,18.365c3.415,4.065,9.557,11.372,7.222,16.649" transform="translate(0.323 0.208)" fill="url(#linear-gradient)"/>
          </g>
        </g>
        <g id="编组-4" data-name="编组" transform="translate(0 18.941)">
          <path id="Clip_4-2" data-name="Clip 4" d="M259.417,1.8c26.994,10.77,43.382,46.455,32.418,86.466a115.982,115.982,0,0,1-26.593,47.5L0,135.931c7.194-26.278,21.043-61.155,48.986-69.858,24.141-7.52,24.723,11.045,54.129,15.369C180.681,92.846,217.018-15.113,259.417,1.8Z" transform="translate(0 0.567)" fill="none"/>
          <g id="编组-5" data-name="编组" clip-path="url(#clip-path-2)">
            <path id="Fill_3" data-name="Fill 3" d="M0,135.931c7.194-26.278,21.043-61.155,48.986-69.858,24.141-7.52,24.723,11.045,54.129,15.369,77.566,11.4,113.9-96.555,156.3-79.639,26.994,10.77,43.382,46.455,32.418,86.466a115.982,115.982,0,0,1-26.593,47.5Z" transform="translate(0 0.567)" fill="url(#linear-gradient-2)"/>
          </g>
        </g>
      </g>
      <path id="Stroke_5" data-name="Stroke 5" d="M0,.5H214" transform="translate(38 212)" fill="none" stroke="#5c75c9" stroke-linecap="round" stroke-miterlimit="10" stroke-width="5.729"/>
      <path id="Stroke_6" data-name="Stroke 6" d="M0,.5H23" transform="translate(265 211)" fill="none" stroke="#5c75c9" stroke-linecap="round" stroke-miterlimit="10" stroke-width="5.729"/>
      <g id="编组-6" data-name="编组" transform="translate(76 16)">
        <path id="Clip_10-2" data-name="Clip 10" d="M0,4.465A13.645,13.645,0,0,0,19.459,3.72h0A13.628,13.628,0,0,0,10.1,0h0A13.654,13.654,0,0,0,0,4.465" transform="translate(0.802 0.686)" fill="none"/>
        <g id="编组-7" data-name="编组" clip-path="url(#clip-path-3)">
          <path id="Fill_9" data-name="Fill 9" d="M0,4.465A13.645,13.645,0,0,0,19.459,3.72h0A13.628,13.628,0,0,0,10.1,0h0A13.654,13.654,0,0,0,0,4.465" transform="translate(0.802 0.686)" fill="url(#linear-gradient-3)"/>
        </g>
      </g>
      <g id="编组-8" data-name="编组" transform="translate(71)">
        <path id="Fill_11" data-name="Fill 11" d="M3.41,0h0a13.185,13.185,0,0,1,.683,18.4A13.186,13.186,0,0,1,3.41,0" transform="translate(0.918 23.498)" fill="#fd9271"/>
        <g id="编组-9" data-name="编组">
          <path id="Clip_14-2" data-name="Clip 14" d="M0,0H7.5V18.4H0Z" transform="translate(0.477 0.395)" fill="none"/>
          <g id="编组-10" data-name="编组" clip-path="url(#clip-path-4)">
            <path id="Fill_13" data-name="Fill 13" d="M3.41,0h0a13.186,13.186,0,0,1,.683,18.4A13.185,13.185,0,0,1,3.41,0" transform="translate(0.477 0.395)" fill="#5c75c9"/>
          </g>
        </g>
      </g>
      <g id="编组-11" data-name="编组" transform="translate(54 17)">
        <path id="Clip_16-2" data-name="Clip 16" d="M0,4.466A11.269,11.269,0,0,0,17.347,3.72h0A11.463,11.463,0,0,0,9,0H9A11.608,11.608,0,0,0,0,4.466" transform="translate(0.561 0.439)" fill="none"/>
        <g id="编组-12" data-name="编组" clip-path="url(#clip-path-5)">
          <path id="Fill_15" data-name="Fill 15" d="M0,4.466A11.269,11.269,0,0,0,17.347,3.72h0A11.463,11.463,0,0,0,9,0H9A11.608,11.608,0,0,0,0,4.466" transform="translate(0.561 0.439)" fill="url(#linear-gradient-4)"/>
        </g>
      </g>
      <g id="编组-13" data-name="编组" transform="translate(24 31)">
        <path id="Fill_17" data-name="Fill 17" d="M5.661,0l.693,1.265a9.3,9.3,0,0,0,3.7,3.692l1.268.692-1.268.692a9.3,9.3,0,0,0-3.7,3.692L5.661,11.3l-.693-1.265a9.291,9.291,0,0,0-3.7-3.692L0,5.649l1.267-.692a9.291,9.291,0,0,0,3.7-3.692Z" transform="translate(0.368 114.505)" fill="#5c74c6"/>
        <path id="Fill_19" data-name="Fill 19" d="M5.661,0l.693,1.265a9.3,9.3,0,0,0,3.7,3.693l1.268.692-1.268.691a9.3,9.3,0,0,0-3.7,3.692L5.661,11.3l-.693-1.265a9.3,9.3,0,0,0-3.7-3.692L0,5.649l1.268-.692a9.3,9.3,0,0,0,3.7-3.693Z" transform="translate(203.005 127.422)" fill="#5c74c6"/>
        <path id="Fill_21" data-name="Fill 21" d="M5.661,0l.693,1.265a9.3,9.3,0,0,0,3.7,3.692l1.268.692-1.268.692a9.291,9.291,0,0,0-3.7,3.692L5.661,11.3l-.693-1.265a9.291,9.291,0,0,0-3.7-3.692L0,5.649l1.267-.692a9.3,9.3,0,0,0,3.7-3.692Z" transform="translate(132.415 0.66)" fill="#5c74c6"/>
      </g>
      <g id="编组-14" data-name="编组" transform="translate(77 204)">
        <path id="Clip_24-2" data-name="Clip 24" d="M4.046.222A5.6,5.6,0,0,0,.221,7.152h0a5.6,5.6,0,0,0,6.931,3.825h0a5.6,5.6,0,0,0,3.825-6.931h0A5.6,5.6,0,0,0,5.6,0h0A5.582,5.582,0,0,0,4.046.222" transform="translate(0.563 0.057)" fill="none"/>
        <g id="编组-15" data-name="编组" clip-path="url(#clip-path-6)">
          <path id="Fill_23" data-name="Fill 23" d="M4.046.222A5.6,5.6,0,0,0,.221,7.152h0a5.6,5.6,0,0,0,6.931,3.825h0a5.6,5.6,0,0,0,3.825-6.931h0A5.6,5.6,0,0,0,5.6,0h0A5.582,5.582,0,0,0,4.046.222" transform="translate(0.563 0.057)" fill="url(#linear-gradient-5)"/>
        </g>
      </g>
      <g id="编组-16" data-name="编组" transform="translate(34 57)">
        <path id="Clip_26-2" data-name="Clip 26" d="M4.046.222A5.6,5.6,0,0,0,.221,7.154h0a5.6,5.6,0,0,0,6.933,3.824h0a5.6,5.6,0,0,0,3.823-6.931h0A5.6,5.6,0,0,0,5.6,0h0A5.618,5.618,0,0,0,4.046.222" transform="translate(0.107 0.546)" fill="none"/>
        <g id="编组-17" data-name="编组" clip-path="url(#clip-path-7)">
          <path id="Fill_25" data-name="Fill 25" d="M4.046.222A5.6,5.6,0,0,0,.221,7.154h0a5.6,5.6,0,0,0,6.933,3.824h0a5.6,5.6,0,0,0,3.823-6.931h0A5.6,5.6,0,0,0,5.6,0h0A5.618,5.618,0,0,0,4.046.222" transform="translate(0.107 0.546)" fill="url(#linear-gradient-6)"/>
        </g>
      </g>
      <g id="编组-18" data-name="编组" transform="translate(42 41)">
        <path id="Stroke_27" data-name="Stroke 27" d="M39.335,135.864,0,0" transform="translate(0.057 27.64)" fill="none" stroke="#000" stroke-linecap="round" stroke-linejoin="round" stroke-miterlimit="10" stroke-width="1.966" stroke-dasharray="2.458 4.424"/>
        <path id="Stroke_29" data-name="Stroke 29" d="M0,73.261C21-21.485,109.9,2.785,109.9,2.785" transform="translate(20.089 20.561)" fill="none" stroke="#000" stroke-linecap="round" stroke-linejoin="round" stroke-miterlimit="10" stroke-width="1.966" stroke-dasharray="2.458 4.424"/>
        <path id="Fill_31" data-name="Fill 31" d="M36.614,9.45a9.949,9.949,0,0,1-1.964,6.521l-.8.94L19.661,33.684a1.734,1.734,0,0,1-2.646,0L3.075,17.211q-.1-.095-.194-.191l-.991-1.17A10.019,10.019,0,1,1,18.314,4.373a10.032,10.032,0,0,1,18.3,5.077" transform="translate(170.291 0.073)" fill="#fa8a68"/>
      </g>
      <g id="编组-19" data-name="编组" transform="translate(97 115)">
        <path id="Clip_34-2" data-name="Clip 34" d="M0,1.528V75.594a1.515,1.515,0,0,0,1.441,1.528h0l74,2.877A1.513,1.513,0,0,0,77,78.471h0V2.966a1.515,1.515,0,0,0-1.469-1.529h0L1.527,0H1.5A1.513,1.513,0,0,0,0,1.528" fill="none"/>
        <g id="编组-20" data-name="编组" clip-path="url(#clip-path-8)">
          <path id="Fill_33" data-name="Fill 33" d="M0,1.528V75.594a1.515,1.515,0,0,0,1.441,1.528h0l74,2.877A1.513,1.513,0,0,0,77,78.471h0V2.966a1.515,1.515,0,0,0-1.469-1.529h0L1.527,0H1.5A1.513,1.513,0,0,0,0,1.528" fill="url(#linear-gradient-7)"/>
        </g>
      </g>
      <g id="编组-21" data-name="编组" transform="translate(92 91)">
        <path id="Clip_36-2" data-name="Clip 36" d="M28.886,0a.158.158,0,0,0-.073.018h0L.081,14.527a.143.143,0,0,0,.072.271h0L76.4,16.15a.163.163,0,0,0,.091-.026h0L100.934.263A.143.143,0,0,0,100.845,0H28.886Z" transform="translate(0 0.708)" fill="none"/>
        <g id="编组-22" data-name="编组" clip-path="url(#clip-path-9)">
          <path id="Fill_35" data-name="Fill 35" d="M28.886,0a.158.158,0,0,0-.073.018h0L.081,14.527a.143.143,0,0,0,.072.271h0L76.4,16.15a.163.163,0,0,0,.091-.026h0L100.934.263A.143.143,0,0,0,100.845,0H28.886Z" transform="translate(0 0.708)" fill="url(#linear-gradient-8)"/>
        </g>
      </g>
      <g id="编组-23" data-name="编组" transform="translate(51 129)">
        <path id="Fill_39" data-name="Fill 39" d="M16.983,23.975a25.736,25.736,0,0,1-.371,4.891,7.181,7.181,0,0,1-1.493,3.2q-2.054,2.518-6.16,2.518-4.338,0-6.579-1.816a6.545,6.545,0,0,1-2.239-5.4L0,23.345V22.183H7.186v5.23q0,2.034,1.214,2.034a1.081,1.081,0,0,0,1.143-.969,20.565,20.565,0,0,0,.209-3.632V22.522q0-2.907-.98-3.681a6.1,6.1,0,0,0-3.313-.582V13.416h.42q2.614,0,3.244-.533t.629-3.051V7.943a8.121,8.121,0,0,0-.141-1.937,1.1,1.1,0,0,0-1.119-.871q-1.306,0-1.307,1.985V9.978H0V8.088Q0,3.439,1.843,1.72T8.259,0q4.292,0,6.369,2.107T16.7,8.815a8.4,8.4,0,0,1-.886,4.31,6.08,6.08,0,0,1-2.1,1.938,4.437,4.437,0,0,1,2.706,2.688,23.477,23.477,0,0,1,.559,6.224" transform="translate(58.776 7.767)" fill="#fff"/>
        <path id="Fill_41" data-name="Fill 41" d="M10.5,33.323H0V0H6.254A57.253,57.253,0,0,1,13.46.314a6.682,6.682,0,0,1,3.71,1.768,5.894,5.894,0,0,1,1.914,3.293,24.789,24.789,0,0,1,.28,4.5V23.393c0,2.274-.016,3.627-.047,4.02a6.493,6.493,0,0,1-1.471,3.972,5.848,5.848,0,0,1-3.2,1.695A25.417,25.417,0,0,1,10.5,33.323ZM8.352,5.715V27.559c1.457,0,2.288-.506,2.473-1.5a23.193,23.193,0,0,0,.14-3.245V8.233c0-1.125-.2-1.834-.584-2.106A3.69,3.69,0,0,0,8.352,5.715Z" transform="translate(83.384 8.542)" fill="#fff"/>
        <path id="Stroke_45" data-name="Stroke 45" d="M109.911,0C88.913,94.8,0,70.516,0,70.516" transform="translate(67.411 23.95)" fill="none" stroke="#000" stroke-linecap="round" stroke-linejoin="round" stroke-miterlimit="10" stroke-width="1.966" stroke-dasharray="2.458 4.424"/>
        <path id="Fill_47" data-name="Fill 47" d="M17.411,2.654,14.752,17.378,0,14.725,2.658,0Z" transform="translate(0.078 0.586)" fill="#fd9271"/>
        <path id="Fill_43" data-name="Fill 43" d="M0,14.724,2.659,0,17.411,2.653,14.753,17.378Z" transform="translate(170.031 11.738)" fill="#fd9271"/>
      </g>
      <g id="编组-24" data-name="编组" transform="translate(181 105)">
        <path id="Clip_2-4" data-name="Clip 2" d="M24.754.028.065,17.368A.155.155,0,0,0,0,17.5H0v76.35A.155.155,0,0,0,.156,94h0a.154.154,0,0,0,.114-.052h0L24.96,66.494a.158.158,0,0,0,.04-.1h0V.155A.155.155,0,0,0,24.844,0h0a.158.158,0,0,0-.089.028" fill="none"/>
        <g id="编组-25" data-name="编组" clip-path="url(#clip-path-10)">
          <path id="Fill_1-2" data-name="Fill 1" d="M.065,17.368A.155.155,0,0,0,0,17.5v76.35A.155.155,0,0,0,.156,94h0a.154.154,0,0,0,.114-.052L24.96,66.494a.158.158,0,0,0,.04-.1V.155A.155.155,0,0,0,24.844,0a.158.158,0,0,0-.089.028Z" fill="url(#linear-gradient-9)"/>
        </g>
      </g>
    </g>
  </g>
</svg>
