<svg id="dollar_1_" data-name="dollar (1)" xmlns="http://www.w3.org/2000/svg" width="45.11" height="45.11" viewBox="0 0 45.11 45.11">
  <g id="Group_2002" data-name="Group 2002">
    <g id="innovation">
      <path id="Path_5662" data-name="Path 5662" d="M22.72,6.892A12.78,12.78,0,0,0,9.833,19.279a12.625,12.625,0,0,0,2.338,7.7,14.146,14.146,0,0,1,2.551,8.25v3.4a.616.616,0,0,0,.219.471l2.243,1.9v2.314a1.807,1.807,0,0,0,1.806,1.805h7.132A1.807,1.807,0,0,0,27.927,43.3V40.991l2.243-1.9a.616.616,0,0,0,.219-.471v-3.4a14.611,14.611,0,0,1,2.63-8.36A12.728,12.728,0,0,0,22.72,6.892Zm4.364,33.2H18.027l-1.781-1.506h12.62Zm2.07-2.74h-13.2V35.842h13.2Zm-2.461,5.956a.573.573,0,0,1-.572.572H18.989a.573.573,0,0,1-.572-.572V41.324h8.276Zm5.313-17.148a15.846,15.846,0,0,0-2.839,8.45H15.944a15.287,15.287,0,0,0-2.768-8.347,11.405,11.405,0,0,1-2.11-6.948A11.537,11.537,0,0,1,22.558,8.124H22.7a11.494,11.494,0,0,1,9.3,18.033Z" fill="#f67362"/>
      <path id="Path_5663" data-name="Path 5663" d="M29.337,19.624a7.013,7.013,0,0,0-.814-1.974l.808-.809a.616.616,0,0,0,0-.872L27.864,14.5a.616.616,0,0,0-.872,0l-.8.8a7.01,7.01,0,0,0-1.976-.822V13.348a.617.617,0,0,0-.617-.617H21.517a.617.617,0,0,0-.617.617v1.134a7.01,7.01,0,0,0-1.978.822l-.8-.8a.616.616,0,0,0-.872,0l-1.468,1.468a.616.616,0,0,0,0,.872l.808.809a7.013,7.013,0,0,0-.814,1.974H14.626a.617.617,0,0,0-.617.617v2.076a.617.617,0,0,0,.617.617h1.157a7,7,0,0,0,.818,1.961l-.822.822a.616.616,0,0,0,0,.872l1.468,1.468a.634.634,0,0,0,.872,0l.827-.827a7.005,7.005,0,0,0,1.954.808v1.17a.617.617,0,0,0,.617.617h2.076a.617.617,0,0,0,.617-.617v-1.17a7.005,7.005,0,0,0,1.956-.808l.827.827a.616.616,0,0,0,.872,0l1.468-1.468a.616.616,0,0,0,0-.872l-.82-.822a7,7,0,0,0,.818-1.96h1.156a.617.617,0,0,0,.617-.617V20.24a.617.617,0,0,0-.617-.617Zm.531,2.076H28.826a.616.616,0,0,0-.608.515,5.748,5.748,0,0,1-1,2.4.616.616,0,0,0,.064.8l.743.74-.6.6L26.683,26a.617.617,0,0,0-.795-.066,5.75,5.75,0,0,1-2.4.99.616.616,0,0,0-.514.61v1.057h-.846V27.534a.616.616,0,0,0-.515-.609,5.75,5.75,0,0,1-2.4-.99.617.617,0,0,0-.795.066l-.745.746-.6-.6.744-.741a.616.616,0,0,0,.064-.8,5.748,5.748,0,0,1-1-2.4.616.616,0,0,0-.608-.515H15.242v-.842h1.035a.617.617,0,0,0,.609-.519,5.748,5.748,0,0,1,.993-2.412.617.617,0,0,0-.066-.795l-.727-.727.6-.6.725.725a.617.617,0,0,0,.8.064,5.736,5.736,0,0,1,2.414-1,.617.617,0,0,0,.515-.611V13.964h.846v1.022a.617.617,0,0,0,.517.609,5.736,5.736,0,0,1,2.412,1,.616.616,0,0,0,.8-.064l.725-.725.6.6-.727.727a.617.617,0,0,0-.066.795,5.748,5.748,0,0,1,.993,2.412.617.617,0,0,0,.609.518h1.035Z" fill="#f67362"/>
      <path id="Path_5664" data-name="Path 5664" d="M22.555,16.925A4.335,4.335,0,1,0,26.89,21.26a4.335,4.335,0,0,0-4.335-4.335Zm0,7.438a3.1,3.1,0,1,1,3.1-3.1,3.1,3.1,0,0,1-3.1,3.1Z" fill="#f67362"/>
      <path id="Path_5665" data-name="Path 5665" d="M22.555,4.787a.617.617,0,0,0,.617-.617V.617a.617.617,0,0,0-1.233,0V4.17A.617.617,0,0,0,22.555,4.787Z" fill="#f67362"/>
      <path id="Path_5666" data-name="Path 5666" d="M37.632,6.606,35.119,9.119a.617.617,0,0,0,.872.872L38.5,7.478a.617.617,0,1,0-.872-.872Z" fill="#f67362"/>
      <path id="Path_5667" data-name="Path 5667" d="M44.494,21.938H40.94a.617.617,0,0,0,0,1.233h3.553a.617.617,0,0,0,0-1.233Z" fill="#f67362"/>
      <path id="Path_5668" data-name="Path 5668" d="M4.17,21.938H.617a.617.617,0,0,0,0,1.233H4.17a.617.617,0,0,0,0-1.233Z" fill="#f67362"/>
      <path id="Path_5669" data-name="Path 5669" d="M9.991,9.119,7.478,6.606a.617.617,0,1,0-.872.872L9.119,9.991a.617.617,0,1,0,.872-.872Z" fill="#f67362"/>
    </g>
  </g>
</svg>
