<svg xmlns="http://www.w3.org/2000/svg" width="56.915" height="46.603" viewBox="0 0 56.915 46.603">
  <g id="icon_and_text_1" data-name="icon and text 1" transform="translate(0 -42.126)">
    <path id="Path_3473" data-name="Path 3473" d="M226.836,152.949V125.538a.918.918,0,1,0-1.836,0v27.411a.918.918,0,0,0,1.836,0Z" transform="translate(-197.461 -72.397)" fill="#9775f9"/>
    <path id="Path_3474" data-name="Path 3474" d="M56,46.245c-1.941,0-4.359-.837-6.92-1.724-3.243-1.123-6.918-2.4-10.73-2.4a10.967,10.967,0,0,0-9.89,5.308,10.967,10.967,0,0,0-9.89-5.308c-3.812,0-7.487,1.273-10.73,2.4-2.561.887-4.979,1.724-6.92,1.724A.918.918,0,0,0,0,47.163V84.139a.918.918,0,0,0,.918.918c2.25,0,4.81-.887,7.52-1.825,3.106-1.075,6.626-2.294,10.129-2.294a9.349,9.349,0,0,1,7.226,2.956.918.918,0,0,0,1.356-1.238A11.188,11.188,0,0,0,18.567,79.1c-3.812,0-7.487,1.273-10.73,2.4a30.637,30.637,0,0,1-6,1.669V48.036a30.36,30.36,0,0,0,6.6-1.78c3.106-1.075,6.626-2.294,10.129-2.294,7.084,0,8.938,5.626,9.013,5.862a.918.918,0,0,0,1.755,0,9.144,9.144,0,0,1,9.013-5.862c3.5,0,7.023,1.219,10.129,2.294a30.355,30.355,0,0,0,6.6,1.78v35.13a30.642,30.642,0,0,1-6-1.669c-3.243-1.123-6.918-2.4-10.73-2.4a11.187,11.187,0,0,0-8.582,3.554.918.918,0,1,0,1.356,1.238,9.349,9.349,0,0,1,7.226-2.956c3.5,0,7.023,1.219,10.129,2.294,2.71.939,5.271,1.825,7.52,1.825a.918.918,0,0,0,.918-.918V47.163A.918.918,0,0,0,56,46.245Z" transform="translate(0 0)" fill="#9775f9"/>
    <path id="Path_3475" data-name="Path 3475" d="M56,378.337c-1.941,0-4.359-.837-6.92-1.724-3.243-1.123-6.918-2.4-10.73-2.4a11.247,11.247,0,0,0-8.3,3.255H26.865a11.247,11.247,0,0,0-8.3-3.255c-3.812,0-7.487,1.273-10.73,2.4-2.56.887-4.979,1.724-6.92,1.724a.918.918,0,1,0,0,1.836c2.25,0,4.81-.887,7.52-1.825,3.106-1.075,6.626-2.294,10.129-2.294a9.349,9.349,0,0,1,7.226,2.956.918.918,0,0,0,.678.3h3.972a.918.918,0,0,0,.678-.3,9.349,9.349,0,0,1,7.226-2.956c3.5,0,7.023,1.219,10.129,2.294,2.71.939,5.271,1.825,7.52,1.825a.918.918,0,0,0,0-1.836Z" transform="translate(0 -291.445)" fill="#9775f9"/>
  </g>
</svg>
