<svg xmlns="http://www.w3.org/2000/svg" xmlns:xlink="http://www.w3.org/1999/xlink" width="449.559" height="267.178" viewBox="0 0 449.559 267.178">
  <defs>
    <clipPath id="clip-path">
      <path id="Clip_2" data-name="Clip 2" d="M64.753,22.877C68.987,27.942,76.6,37.045,73.7,43.619,67.767,57.1,17.65,59.922,3.932,35.15c-5.061-9.141-5.8-23.182,1.137-30.161" transform="translate(0 0.168)" fill="none"/>
    </clipPath>
    <linearGradient id="linear-gradient" x1="0.631" y1="1.406" x2="0.377" y2="-0.2" gradientUnits="objectBoundingBox">
      <stop offset="0" stop-color="#d4e1f2"/>
      <stop offset="1" stop-color="#cfddf0"/>
    </linearGradient>
    <clipPath id="clip-path-2">
      <path id="Clip_4" data-name="Clip 4" d="M327.563,2.288C361.648,15.953,382.341,61.231,368.5,112a147.321,147.321,0,0,1-33.578,60.273L0,172.469c9.084-33.342,26.57-77.594,61.854-88.636,30.483-9.539,31.218,14.015,68.349,19.5C228.144,117.8,274.026-19.175,327.563,2.288Z" transform="translate(0.767 0.353)" fill="none"/>
    </clipPath>
    <linearGradient id="linear-gradient-2" x1="-0.005" y1="0.956" x2="0.969" y2="0.447" xlink:href="#linear-gradient"/>
    <clipPath id="clip-path-3">
      <path id="Clip_15" data-name="Clip 15" d="M167.4,0a12.241,12.241,0,0,1,12.25,12.225V49.146A12.237,12.237,0,0,1,167.4,61.37H12.256A12.237,12.237,0,0,1,0,49.146V44.833A39.648,39.648,0,0,1,8.132,33.162L30.9,10.465,41.387,0" transform="translate(0.237 0.294)" fill="none"/>
    </clipPath>
    <linearGradient id="linear-gradient-3" x1="-0.305" y1="0.5" x2="2.195" y2="0.5" gradientUnits="objectBoundingBox">
      <stop offset="0" stop-color="#d6e6fd"/>
      <stop offset="1" stop-color="#d1e2fd"/>
    </linearGradient>
    <clipPath id="clip-path-4">
      <path id="Clip_17" data-name="Clip 17" d="M166.763,0A12.871,12.871,0,0,1,179.65,12.853V55.026a12.871,12.871,0,0,1-12.887,12.853H12.888A12.871,12.871,0,0,1,0,55.026V12.853A12.871,12.871,0,0,1,12.888,0" transform="translate(0.339 0.53)" fill="none"/>
    </clipPath>
    <linearGradient id="linear-gradient-4" x1="2.645" y1="0.5" x2="-0.394" y2="0.5" xlink:href="#linear-gradient-3"/>
    <clipPath id="clip-path-5">
      <path id="Clip_19" data-name="Clip 19" d="M12.241,0A12.251,12.251,0,0,0,0,12.26H0V49.3A12.251,12.251,0,0,0,12.241,61.562H167.227A12.251,12.251,0,0,0,179.469,49.3h0V12.26A12.251,12.251,0,0,0,167.227,0H12.241Z" transform="translate(0.397 0.137)" fill="none"/>
    </clipPath>
    <linearGradient id="linear-gradient-5" x1="-0.305" y1="0.5" x2="2.194" y2="0.5" gradientUnits="objectBoundingBox">
      <stop offset="0" stop-color="#5b75c8"/>
      <stop offset="1" stop-color="#2d419a"/>
    </linearGradient>
    <clipPath id="clip-path-6">
      <path id="Clip_21" data-name="Clip 21" d="M12.874,0A12.834,12.834,0,0,0,0,12.8H0V54.776a12.835,12.835,0,0,0,12.874,12.8h153.72a12.835,12.835,0,0,0,12.874-12.8h0V12.8A12.835,12.835,0,0,0,166.594,0H12.874Z" transform="translate(0.499 0.369)" fill="none"/>
    </clipPath>
    <linearGradient id="linear-gradient-6" x1="2.645" y1="0.5" x2="-0.394" y2="0.5" gradientUnits="objectBoundingBox">
      <stop offset="0" stop-color="#5b75c8"/>
      <stop offset="1" stop-color="#d1e2fd"/>
    </linearGradient>
    <clipPath id="clip-path-7">
      <path id="Clip_31" data-name="Clip 31" d="M0,0H148.9V134.335H0Z" transform="translate(0.326 0.665)" fill="none"/>
    </clipPath>
    <clipPath id="clip-path-8">
      <path id="Clip_33" data-name="Clip 33" d="M.123,6.767l.615.2A.868.868,0,0,0,1.7,6.451h0l18.419,6.414c.69-6.381-2.066-8.821-3.879-10.542h0C14.646.813,11.675,0,8.706,0h0C3.937,0-.83,2.1.123,6.767" transform="translate(0.355 0.664)" fill="none"/>
    </clipPath>
    <linearGradient id="linear-gradient-7" x1="0.003" y1="0.551" x2="0.99" y2="0.479" gradientUnits="objectBoundingBox">
      <stop offset="0" stop-color="#fd9170"/>
      <stop offset="1" stop-color="#fdd4c3"/>
    </linearGradient>
    <clipPath id="clip-path-9">
      <path id="Clip_35" data-name="Clip 35" d="M13.193.649A1,1,0,0,1,14.306.032h0l2.314.741a.973.973,0,0,1,.554,1.057h0L54.709,12.973a4.022,4.022,0,0,1,.475.177c.051.023.1.051.149.074.1.051.2.1.295.159.057.034.11.071.165.108.084.057.167.115.247.178.055.043.109.087.161.133.074.065.146.132.216.2.051.052.1.1.153.158.067.071.129.147.191.224.046.058.095.115.14.176.06.082.115.169.172.256.039.061.081.12.118.184.085.143.163.291.236.445.042.088.078.181.116.272.032.076.064.15.093.228.037.1.069.2.1.307.023.074.047.145.067.221s.042.152.061.23h0l5.219,1.549c1.8.535,2.655,2.939,1.9,5.337s-2.834,3.863-4.61,3.252h0L56.7,25.577l-1.476-.508a4.8,4.8,0,0,1-4.715,1.211h0L13.484,13.545a.97.97,0,0,1-1.066.538h0l-2.313-.741a1,1,0,0,1-.54-1.145h0L0,8.906a14.171,14.171,0,0,1,5.692.81A39.186,39.186,0,0,0,12.767.522h0Z" transform="translate(0.281 -0.004)" fill="none"/>
    </clipPath>
    <linearGradient id="linear-gradient-8" x1="0.004" y1="0.563" x2="0.994" y2="0.454" xlink:href="#linear-gradient-7"/>
    <clipPath id="clip-path-10">
      <path id="Clip_39" data-name="Clip 39" d="M0,0,2.488.716l1.492.431h0l.993.288h0l.991.288c14.36,4.174,27.942,8.3,32.416,9.614.957.282,1.892.526,2.814.758l.5.126h0l.5.124.991.248.493.126c6.48,1.666,12.6,3.927,21.267,16.307a121.775,121.775,0,0,1,7.73,13.53l-4.433.809a83.438,83.438,0,0,0-6.511-10.848C53.873,22.082,48.1,19.429,42.236,17.888l-.489-.126c-.652-.165-1.306-.319-1.965-.47l-.5-.113c-1.323-.3-2.667-.6-4.058-.978-.465-.125-.953-.262-1.48-.408-1.04-.306-2.215-.666-3.489-1.071-.624-.19-1.262-.4-1.924-.63-.919-.311-1.877-.645-2.884-1.014q-.644-.224-1.326-.486c-.516-.2-1.044-.391-1.6-.609q-1.015-.392-2.066-.818c-.148-.066-.308-.132-.467-.2-.467-.186-.948-.4-1.429-.6s-.959-.407-1.44-.628A97.211,97.211,0,0,1,5.467,3.693C4.523,3.116,3.59,2.513,2.67,1.9" transform="translate(0.28 0.774)" fill="none"/>
    </clipPath>
    <linearGradient id="linear-gradient-9" x1="0.152" y1="-0.394" x2="0.722" y2="1.013" xlink:href="#linear-gradient-7"/>
    <clipPath id="clip-path-11">
      <path id="Clip_41" data-name="Clip 41" d="M22.415,11.366c15.445,5.779-1.442-6.678-1.442-6.678h0c-5.761.156-11.713.581-14.9-1.077h0C4.5,2.793,2.376,1.486,0,0H0C.2.122,6.97,5.589,22.415,11.366" transform="translate(0.064 0.737)" fill="none"/>
    </clipPath>
    <linearGradient id="linear-gradient-10" x1="0.011" y1="0.549" x2="0.99" y2="0.448" xlink:href="#linear-gradient-7"/>
    <clipPath id="clip-path-12">
      <path id="Clip_43" data-name="Clip 43" d="M1.267,6.044,2.8,4.1A9.1,9.1,0,0,1,.018,0h0S-.25,4.44,1.267,6.044" transform="translate(0.664 0.556)" fill="none"/>
    </clipPath>
    <linearGradient id="linear-gradient-11" x1="0.567" y1="1.108" x2="0.418" y2="-0.38" xlink:href="#linear-gradient-7"/>
    <clipPath id="clip-path-13">
      <path id="Clip_45" data-name="Clip 45" d="M0,6.172.606,7.278C1,3.642,7.369,0,7.369,0h0C2,.119,0,6.172,0,6.172" transform="translate(0.508 0.35)" fill="none"/>
    </clipPath>
    <linearGradient id="linear-gradient-12" x1="-0.014" y1="0.525" x2="1.021" y2="0.478" xlink:href="#linear-gradient-7"/>
    <clipPath id="clip-path-14">
      <path id="Clip_49" data-name="Clip 49" d="M10.987,0,.533.993a.441.441,0,0,0-.486.389h0c0,.014,0,.031-.006.048h0a2.145,2.145,0,0,0,1.6,2.51h0L9.6,5.745a2.1,2.1,0,0,0,2.339-1.138h0l41.012,9.3-.6,2.725a.507.507,0,0,0,.376.6h0l5.55,1.258a.493.493,0,0,0,.447-.124h0a.515.515,0,0,0,.152-.444h0l-1.014-6.985a.5.5,0,0,0-.384-.42h0L11.14.012A.463.463,0,0,0,11.033,0h0l-.046,0" transform="translate(0.641 0.2)" fill="none"/>
    </clipPath>
    <linearGradient id="linear-gradient-13" x1="0.111" y1="0.032" x2="6.198" y2="5.611" xlink:href="#linear-gradient-6"/>
    <clipPath id="clip-path-15">
      <path id="Clip_55" data-name="Clip 55" d="M3.5,0,2.693.1.751,8.787.043,11.942l-.043.2.688.435a.663.663,0,0,0,.159.065h0l5.4,1.2a.5.5,0,0,0,.159.007h0L99.087,34.4a.5.5,0,0,0,.6-.379h0l2.6-11.606a.5.5,0,0,0-.378-.6h0L9.21,1.266a.527.527,0,0,0-.141-.058h0l-5.4-1.2A.577.577,0,0,0,3.559,0h0A.477.477,0,0,0,3.5,0" transform="translate(0.64 0.425)" fill="none"/>
    </clipPath>
    <linearGradient id="linear-gradient-14" x1="0.529" y1="0.523" x2="4.062" y2="3.48" xlink:href="#linear-gradient-6"/>
    <clipPath id="clip-path-16">
      <path id="Clip_57" data-name="Clip 57" d="M.7,0,99.278,22.088l-.736,3.307L.837,3.681,0,3.149" transform="translate(0.68 0.258)" fill="none"/>
    </clipPath>
    <linearGradient id="linear-gradient-15" x1="1.062" y1="0.981" x2="-0.124" y2="-0.033" xlink:href="#linear-gradient-5"/>
    <clipPath id="clip-path-17">
      <path id="Clip_59" data-name="Clip 59" d="M2.507.4.012,12.283a.513.513,0,0,0,.365.61h0l6.79,1.6a.482.482,0,0,0,.574-.387h0L10.234,2.225a.512.512,0,0,0-.365-.61h0L3.081.013A.471.471,0,0,0,2.974,0h0a.486.486,0,0,0-.467.4" transform="translate(0.296 0.415)" fill="none"/>
    </clipPath>
    <linearGradient id="linear-gradient-16" x1="1.687" y1="0.71" x2="12.803" y2="2.674" xlink:href="#linear-gradient-6"/>
    <clipPath id="clip-path-18">
      <path id="Clip_65" data-name="Clip 65" d="M0,0H75.549V75.145H0Z" transform="translate(0.608 0.004)" fill="none"/>
    </clipPath>
    <clipPath id="clip-path-19">
      <path id="Clip_67" data-name="Clip 67" d="M0,37.442c-.183,20.947,17.72,38.08,38.717,38.08H76.024S-5.967,44.38,39.413.032h0C38.889.011,38.37,0,37.85,0h0A37.8,37.8,0,0,0,0,37.442" transform="translate(0.611 0.004)" fill="none"/>
    </clipPath>
    <linearGradient id="linear-gradient-17" x1="0.496" y1="0.759" x2="0.112" y2="-1" gradientUnits="objectBoundingBox">
      <stop offset="0" stop-color="#ef8c6e"/>
      <stop offset="1" stop-color="#f9d1c1"/>
    </linearGradient>
  </defs>
  <g id="编组_9" data-name="编组 9" transform="translate(0 -0.004)">
    <g id="编组">
      <g id="编组-2" data-name="编组" transform="translate(0 66)">
        <g id="编组-3" data-name="编组" transform="translate(0 17.953)">
          <path id="Clip_2-2" data-name="Clip 2" d="M64.753,22.877C68.987,27.942,76.6,37.045,73.7,43.619,67.767,57.1,17.65,59.922,3.932,35.15c-5.061-9.141-5.8-23.182,1.137-30.161" transform="translate(0 0.168)" fill="none"/>
          <g id="编组-4" data-name="编组" clip-path="url(#clip-path)">
            <path id="Fill_1" data-name="Fill 1" d="M73.7,43.619C67.767,57.1,17.65,59.922,3.932,35.15c-5.061-9.141-5.8-23.182,1.137-30.161C16.86-6.875,48.756,3.75,64.753,22.877,68.987,27.942,76.6,37.045,73.7,43.619" transform="translate(0 0.168)" fill="url(#linear-gradient)"/>
          </g>
        </g>
        <g id="编组-5" data-name="编组" transform="translate(70.777)">
          <path id="Clip_4-2" data-name="Clip 4" d="M327.563,2.288C361.648,15.953,382.341,61.231,368.5,112a147.321,147.321,0,0,1-33.578,60.273L0,172.469c9.084-33.342,26.57-77.594,61.854-88.636,30.483-9.539,31.218,14.015,68.349,19.5C228.144,117.8,274.026-19.175,327.563,2.288Z" transform="translate(0.767 0.353)" fill="none"/>
          <g id="编组-6" data-name="编组" clip-path="url(#clip-path-2)">
            <path id="Fill_3" data-name="Fill 3" d="M0,172.469c9.084-33.342,26.57-77.594,61.854-88.636,30.483-9.539,31.218,14.015,68.349,19.5C228.144,117.8,274.026-19.175,327.563,2.288,361.648,15.953,382.341,61.231,368.5,112a147.321,147.321,0,0,1-33.578,60.273Z" transform="translate(0.767 0.353)" fill="url(#linear-gradient-2)"/>
          </g>
        </g>
      </g>
      <path id="Stroke_5" data-name="Stroke 5" d="M0,.5H319" transform="translate(60 239)" fill="none" stroke="#576fb4" stroke-linecap="round" stroke-miterlimit="10" stroke-width="6.473"/>
      <path id="Stroke_6" data-name="Stroke 6" d="M0,.5H35" transform="translate(396 239)" fill="none" stroke="#576fb4" stroke-linecap="round" stroke-miterlimit="10" stroke-width="6.473"/>
      <path id="Stroke_7" data-name="Stroke 7" d="M0,.5H14" transform="translate(33 239)" fill="none" stroke="#576fb4" stroke-linecap="round" stroke-miterlimit="10" stroke-width="6.473"/>
      <g id="编组-7" data-name="编组" transform="translate(101 8)">
        <path id="Fill_8" data-name="Fill 8" d="M9.491,0l1.163,2.119a15.581,15.581,0,0,0,6.2,6.188l2.125,1.16-2.125,1.159a15.586,15.586,0,0,0-6.2,6.188L9.491,18.932,8.328,16.813a15.586,15.586,0,0,0-6.2-6.188L0,9.466l2.125-1.16a15.581,15.581,0,0,0,6.2-6.188Z" transform="translate(149.667 0.288)" fill="#586eb3"/>
        <path id="Fill_10" data-name="Fill 10" d="M6.9,0l.844,1.54a11.327,11.327,0,0,0,4.506,4.494l1.545.842-1.545.842a11.334,11.334,0,0,0-4.506,4.5L6.9,13.753,6.05,12.214a11.329,11.329,0,0,0-4.506-4.5L0,6.876l1.544-.842A11.321,11.321,0,0,0,6.05,1.54Z" transform="translate(294.99 185.46)" fill="#586eb3"/>
        <path id="Fill_12" data-name="Fill 12" d="M9.961,0l1.22,2.224a16.363,16.363,0,0,0,6.511,6.495l2.231,1.217-2.231,1.217a16.354,16.354,0,0,0-6.511,6.493l-1.22,2.226L8.741,17.646a16.352,16.352,0,0,0-6.51-6.493L0,9.936,2.231,8.719a16.361,16.361,0,0,0,6.51-6.495Z" transform="translate(0.48 201.738)" fill="#586eb3"/>
        <g id="编组-8" data-name="编组" transform="translate(26.905 79.692)">
          <path id="Clip_15-2" data-name="Clip 15" d="M167.4,0a12.241,12.241,0,0,1,12.25,12.225V49.146A12.237,12.237,0,0,1,167.4,61.37H12.256A12.237,12.237,0,0,1,0,49.146V44.833A39.648,39.648,0,0,1,8.132,33.162L30.9,10.465,41.387,0" transform="translate(0.237 0.294)" fill="none"/>
          <g id="编组-9" data-name="编组" clip-path="url(#clip-path-3)">
            <path id="Fill_14" data-name="Fill 14" d="M179.646,12.225V49.146A12.237,12.237,0,0,1,167.4,61.37H12.256A12.237,12.237,0,0,1,0,49.146V44.833A39.648,39.648,0,0,1,8.132,33.162L30.9,10.465,41.387,0H167.4a12.241,12.241,0,0,1,12.25,12.225" transform="translate(0.237 0.294)" fill="url(#linear-gradient-3)"/>
          </g>
        </g>
        <g id="编组-10" data-name="编组" transform="translate(48.103 100.022)">
          <path id="Clip_17-2" data-name="Clip 17" d="M166.763,0A12.871,12.871,0,0,1,179.65,12.853V55.026a12.871,12.871,0,0,1-12.887,12.853H12.888A12.871,12.871,0,0,1,0,55.026V12.853A12.871,12.871,0,0,1,12.888,0" transform="translate(0.339 0.53)" fill="none"/>
          <g id="编组-11" data-name="编组" clip-path="url(#clip-path-4)">
            <path id="Fill_16" data-name="Fill 16" d="M179.65,12.853V55.026a12.871,12.871,0,0,1-12.887,12.853H12.888A12.871,12.871,0,0,1,0,55.026V12.853A12.871,12.871,0,0,1,12.888,0H166.763A12.871,12.871,0,0,1,179.65,12.853" transform="translate(0.339 0.53)" fill="url(#linear-gradient-4)"/>
          </g>
        </g>
      </g>
      <g id="编组-12" data-name="编组" transform="translate(116 99)">
        <path id="Clip_19-2" data-name="Clip 19" d="M12.241,0A12.251,12.251,0,0,0,0,12.26H0V49.3A12.251,12.251,0,0,0,12.241,61.562H167.227A12.251,12.251,0,0,0,179.469,49.3h0V12.26A12.251,12.251,0,0,0,167.227,0H12.241Z" transform="translate(0.397 0.137)" fill="none"/>
        <g id="编组-13" data-name="编组" clip-path="url(#clip-path-5)">
          <path id="Fill_18" data-name="Fill 18" d="M12.241,0A12.251,12.251,0,0,0,0,12.26H0V49.3A12.251,12.251,0,0,0,12.241,61.562H167.227A12.251,12.251,0,0,0,179.469,49.3h0V12.26A12.251,12.251,0,0,0,167.227,0H12.241Z" transform="translate(0.397 0.137)" fill="url(#linear-gradient-5)"/>
        </g>
      </g>
      <g id="编组-14" data-name="编组" transform="translate(137 120)">
        <path id="Clip_21-2" data-name="Clip 21" d="M12.874,0A12.834,12.834,0,0,0,0,12.8H0V54.776a12.835,12.835,0,0,0,12.874,12.8h153.72a12.835,12.835,0,0,0,12.874-12.8h0V12.8A12.835,12.835,0,0,0,166.594,0H12.874Z" transform="translate(0.499 0.369)" fill="none"/>
        <g id="编组-15" data-name="编组" clip-path="url(#clip-path-6)">
          <path id="Fill_20" data-name="Fill 20" d="M12.874,0A12.834,12.834,0,0,0,0,12.8H0V54.776a12.835,12.835,0,0,0,12.874,12.8h153.72a12.835,12.835,0,0,0,12.874-12.8h0V12.8A12.835,12.835,0,0,0,166.594,0H12.874Z" transform="translate(0.499 0.369)" fill="url(#linear-gradient-6)"/>
        </g>
      </g>
      <g id="编组-16" data-name="编组" transform="translate(157 131)">
        <path id="Fill_22" data-name="Fill 22" d="M134.646,46H3.488C1.569,46,0,43.523,0,40.5V5.5C0,2.475,1.569,0,3.488,0H134.646c1.918,0,3.488,2.475,3.488,5.5v35c0,3.024-1.57,5.5-3.488,5.5" fill="#fff"/>
        <path id="Fill_24" data-name="Fill 24" d="M31.679,5.374,31.436,0,14.97.74c-1.708,3.073-2.663,5.2-3.148,6.174C9.892,10.781,0,20.03,0,20.03c2.84,7,11.418,3.6,14.154,1.567s8.078-8.429,8.078-8.429c.269-.039,12.5-9.308,9.447-7.794" transform="translate(159.547 21.407)" fill="#e5a493"/>
        <path id="Fill_26" data-name="Fill 26" d="M31.678,7.716,31.33,0,16.355.673c-2.6,4.383-3.931,7.373-4.535,8.583C9.892,13.123,0,22.372,0,22.372c2.84,7,11.417,3.6,14.154,1.567s8.078-8.429,8.078-8.429c.269-.039,12.5-9.308,9.446-7.793" transform="translate(172.278 20.84)" fill="#e5a493"/>
        <path id="Fill_28" data-name="Fill 28" d="M26.44,12.479,25.878,0,16.111.439a104.472,104.472,0,0,0-6.3,13.433C8.221,17.726,0,26.9,0,26.9c2.432,7.014,9.594,3.686,11.872,1.67S18.581,20.2,18.581,20.2c.224-.037,10.4-9.215,7.858-7.723" transform="translate(186.92 20.426)" fill="#e5a493"/>
        <g id="编组-17" data-name="编组" transform="translate(143.335 1)">
          <path id="Clip_31-2" data-name="Clip 31" d="M0,0H148.9V134.335H0Z" transform="translate(0.326 0.665)" fill="none"/>
          <g id="编组-18" data-name="编组" clip-path="url(#clip-path-7)">
            <path id="Fill_30" data-name="Fill 30" d="M148.9,124.906l-47.5,8.624-4.449.805a82.886,82.886,0,0,0-6.536-10.794c-10.952-14.419-17.874-13.9-26.6-16.233-.466-.124-.956-.259-1.485-.406-1.043-.3-2.223-.662-3.5-1.065-.615-.19-1.266-.4-1.931-.628-.923-.309-1.883-.642-2.894-1.008q-.646-.224-1.33-.485c-.518-.194-1.048-.388-1.6-.606Q50.05,102.722,49,102.3c-.149-.066-.309-.132-.469-.2-.482-.2-.951-.393-1.434-.6s-.963-.4-1.446-.625a97.987,97.987,0,0,1-11.7-6.01c-.948-.574-1.884-1.174-2.808-1.787s-1.8-1.238-2.679-1.888c-.012,0-.012,0-.024-.011-2.2-1.644-4.022-3.6-6.042-5.248-9.722-7.911-15.1-4.744-20.767-14.6l-.066-.106L1,70.213c-3.037-5.807,4.746-7.136,1.836-15.466a5.55,5.55,0,0,1-.248-.909c-.029-.12-.046-.24-.064-.36,0-.049-.017-.108-.019-.156a4.3,4.3,0,0,1,.9-3.357c.126-.151.276-.316.416-.455a8.143,8.143,0,0,1,3.624-1.881,14.294,14.294,0,0,1,1.477-.309c3.661-.528,7.89.25,9.915,2.132a19.03,19.03,0,0,1,1.586,1.574c.166.187.333.4.5.62a3.344,3.344,0,0,1,.245.34,5.741,5.741,0,0,1,.458.742.013.013,0,0,0,.013.012c.112.2.22.417.321.642.871,1.891,1.288,4.524.489,8.459,0,0,7.471-.7,11.007,2.713a17.25,17.25,0,0,1,2.327-.25c.448-.02.946-.018,1.468.007a13.332,13.332,0,0,1,4.242.8s.7-.637,1.727-1.748c.151-.163.313-.341.485-.542s.346-.39.53-.605.345-.4.518-.616c.264-.326.539-.665.814-1.029.63-.815,1.28-1.716,1.891-2.687.192-.3.385-.6.565-.909s.382-.659.573-1.007a21.522,21.522,0,0,0,2.352-6.424,14.052,14.052,0,0,0,.208-3.434,22.575,22.575,0,0,0-1.69-7.937,12.348,12.348,0,0,0-.612-1.2c-1.407-2.43-3.623-4.545-7.151-6.711q-.823-.507-1.755-1.01A86.381,86.381,0,0,0,31.7,25.344s-.671.7-1.749,1.821c-3.185,3.279-9.942,10.155-13.739,13.3a13.109,13.109,0,0,1-2.054,1.508,23.867,23.867,0,0,1-5.646,2.179,8.564,8.564,0,0,1-5.431-.277A6.159,6.159,0,0,1,0,40.41s9.886-9.256,11.821-13.12S23.065,1.367,27.843.1c3.618-.961,13.5,5.288,20.866,9.8l.012.012c.312.179.623.371.923.551,1.981,1.207,3.737,2.241,5.089,2.931a8.616,8.616,0,0,0,2.093.717,15.917,15.917,0,0,0,1.661.288q1.316.159,2.81.2l1.007.015c.667.019,1.358.012,2.047-.007l.06,0c.691-.007,1.393-.026,2.108-.046l3.292-.1h.012c5.834-.166,11.464-.043,13.9,2.679,4.876,5.446,13.707,19.332,21.967,34.5s13.625,31.741,18.388,39.3,10.814,15.9,24.663,33.774c.051.071.1.128.154.2" transform="translate(0.326 0.665)" fill="#fcd1c4"/>
          </g>
        </g>
      </g>
      <g id="编组-19" data-name="编组" transform="translate(303 179)">
        <path id="Clip_33-2" data-name="Clip 33" d="M.123,6.767l.615.2A.868.868,0,0,0,1.7,6.451h0l18.419,6.414c.69-6.381-2.066-8.821-3.879-10.542h0C14.646.813,11.675,0,8.706,0h0C3.937,0-.83,2.1.123,6.767" transform="translate(0.355 0.664)" fill="none"/>
        <g id="编组-20" data-name="编组" clip-path="url(#clip-path-8)">
          <path id="Fill_32" data-name="Fill 32" d="M.123,6.767l.615.2A.868.868,0,0,0,1.7,6.451h0l18.419,6.414c.69-6.381-2.066-8.821-3.879-10.542h0C14.646.813,11.675,0,8.706,0h0C3.937,0-.83,2.1.123,6.767" transform="translate(0.355 0.664)" fill="url(#linear-gradient-7)"/>
        </g>
      </g>
      <g id="编组-21" data-name="编组" transform="translate(304 174)">
        <g id="编组-22" data-name="编组" transform="translate(32.459 13.896)">
          <path id="Clip_35-2" data-name="Clip 35" d="M13.193.649A1,1,0,0,1,14.306.032h0l2.314.741a.973.973,0,0,1,.554,1.057h0L54.709,12.973a4.022,4.022,0,0,1,.475.177c.051.023.1.051.149.074.1.051.2.1.295.159.057.034.11.071.165.108.084.057.167.115.247.178.055.043.109.087.161.133.074.065.146.132.216.2.051.052.1.1.153.158.067.071.129.147.191.224.046.058.095.115.14.176.06.082.115.169.172.256.039.061.081.12.118.184.085.143.163.291.236.445.042.088.078.181.116.272.032.076.064.15.093.228.037.1.069.2.1.307.023.074.047.145.067.221s.042.152.061.23h0l5.219,1.549c1.8.535,2.655,2.939,1.9,5.337s-2.834,3.863-4.61,3.252h0L56.7,25.577l-1.476-.508a4.8,4.8,0,0,1-4.715,1.211h0L13.484,13.545a.97.97,0,0,1-1.066.538h0l-2.313-.741a1,1,0,0,1-.54-1.145h0L0,8.906a14.171,14.171,0,0,1,5.692.81A39.186,39.186,0,0,0,12.767.522h0Z" transform="translate(0.281 -0.004)" fill="none"/>
          <g id="编组-23" data-name="编组" clip-path="url(#clip-path-9)">
            <path id="Fill_34" data-name="Fill 34" d="M56.7,25.577h0l3.673,1.264c1.776.611,3.853-.853,4.61-3.252s-.1-4.8-1.9-5.337L57.865,16.7c-.019-.078-.04-.154-.061-.23s-.045-.147-.067-.221c-.032-.1-.065-.206-.1-.307-.029-.078-.062-.152-.093-.228-.038-.092-.074-.184-.116-.272-.073-.154-.151-.3-.236-.445-.037-.064-.08-.123-.118-.184-.057-.087-.112-.174-.172-.256-.045-.06-.093-.118-.14-.176-.062-.077-.124-.153-.191-.224-.05-.055-.1-.105-.153-.158-.07-.069-.142-.137-.216-.2-.053-.046-.106-.09-.161-.133-.08-.063-.162-.121-.247-.178-.054-.037-.108-.074-.165-.108-.1-.057-.195-.108-.295-.159-.049-.024-.1-.051-.149-.074a4.022,4.022,0,0,0-.475-.177L17.173,1.831A.973.973,0,0,0,16.619.774L14.306.032a1,1,0,0,0-1.113.616L12.767.522A39.186,39.186,0,0,1,5.692,9.716,14.171,14.171,0,0,0,0,8.906L9.565,12.2a1,1,0,0,0,.54,1.145l2.313.741a.97.97,0,0,0,1.066-.538L50.509,26.28a4.8,4.8,0,0,0,4.715-1.211Z" transform="translate(0.281 -0.004)" fill="url(#linear-gradient-8)"/>
          </g>
        </g>
        <path id="Fill_36" data-name="Fill 36" d="M5.938,2.091,4.3,1.605A.883.883,0,0,0,3.809.628l-1.87-.6c-.426-.137-.918.215-1.1.786l-.291.92L0,1.658a8.576,8.576,0,0,0,5.938.432" transform="translate(0.031 0.585)" fill="#d38d67"/>
        <g id="编组-24" data-name="编组" transform="translate(25.156 49.043)">
          <path id="Clip_39-2" data-name="Clip 39" d="M0,0,2.488.716l1.492.431h0l.993.288h0l.991.288c14.36,4.174,27.942,8.3,32.416,9.614.957.282,1.892.526,2.814.758l.5.126h0l.5.124.991.248.493.126c6.48,1.666,12.6,3.927,21.267,16.307a121.775,121.775,0,0,1,7.73,13.53l-4.433.809a83.438,83.438,0,0,0-6.511-10.848C53.873,22.082,48.1,19.429,42.236,17.888l-.489-.126c-.652-.165-1.306-.319-1.965-.47l-.5-.113c-1.323-.3-2.667-.6-4.058-.978-.465-.125-.953-.262-1.48-.408-1.04-.306-2.215-.666-3.489-1.071-.624-.19-1.262-.4-1.924-.63-.919-.311-1.877-.645-2.884-1.014q-.644-.224-1.326-.486c-.516-.2-1.044-.391-1.6-.609q-1.015-.392-2.066-.818c-.148-.066-.308-.132-.467-.2-.467-.186-.948-.4-1.429-.6s-.959-.407-1.44-.628A97.211,97.211,0,0,1,5.467,3.693C4.523,3.116,3.59,2.513,2.67,1.9" transform="translate(0.28 0.774)" fill="none"/>
          <g id="编组-25" data-name="编组" clip-path="url(#clip-path-10)">
            <path id="Fill_38" data-name="Fill 38" d="M72.675,42.556l-4.433.809a83.438,83.438,0,0,0-6.511-10.848C50.818,18.023,43.921,18.543,35.229,16.2c-.465-.125-.953-.262-1.48-.408-1.04-.306-2.215-.666-3.489-1.071-.624-.19-1.262-.4-1.924-.63-.919-.311-1.877-.645-2.884-1.014q-.644-.224-1.326-.486c-.516-.2-1.044-.391-1.6-.609q-1.015-.392-2.066-.818c-.148-.066-.308-.132-.467-.2-.467-.186-.948-.4-1.429-.6s-.959-.407-1.44-.628A97.211,97.211,0,0,1,5.467,3.693C4.523,3.116,3.59,2.513,2.67,1.9S.874.653,0,0C16.4,4.706,33.29,9.841,38.38,11.337c8.7,2.561,15.6,2.017,26.564,17.688a121.775,121.775,0,0,1,7.73,13.53" transform="translate(0.28 0.774)" fill="url(#linear-gradient-9)"/>
          </g>
        </g>
      </g>
      <g id="编组-26" data-name="编组" transform="translate(349 142)">
        <path id="Clip_41-2" data-name="Clip 41" d="M22.415,11.366c15.445,5.779-1.442-6.678-1.442-6.678h0c-5.761.156-11.713.581-14.9-1.077h0C4.5,2.793,2.376,1.486,0,0H0C.2.122,6.97,5.589,22.415,11.366" transform="translate(0.064 0.737)" fill="none"/>
        <g id="编组-27" data-name="编组" clip-path="url(#clip-path-11)">
          <path id="Fill_40" data-name="Fill 40" d="M22.415,11.366c15.445,5.779-1.442-6.678-1.442-6.678h0c-5.761.156-11.713.581-14.9-1.077h0C4.5,2.793,2.376,1.486,0,0H0C.2.122,6.97,5.589,22.415,11.366" transform="translate(0.064 0.737)" fill="url(#linear-gradient-10)"/>
        </g>
      </g>
      <g id="编组-28" data-name="编组" transform="translate(329 153)">
        <path id="Clip_43-2" data-name="Clip 43" d="M1.267,6.044,2.8,4.1A9.1,9.1,0,0,1,.018,0h0S-.25,4.44,1.267,6.044" transform="translate(0.664 0.556)" fill="none"/>
        <g id="编组-29" data-name="编组" clip-path="url(#clip-path-12)">
          <path id="Fill_42" data-name="Fill 42" d="M1.267,6.044,2.8,4.1A9.1,9.1,0,0,1,.018,0h0S-.25,4.44,1.267,6.044" transform="translate(0.664 0.556)" fill="url(#linear-gradient-11)"/>
        </g>
      </g>
      <g id="编组-30" data-name="编组" transform="translate(301 196)">
        <path id="Clip_45-2" data-name="Clip 45" d="M0,6.172.606,7.278C1,3.642,7.369,0,7.369,0h0C2,.119,0,6.172,0,6.172" transform="translate(0.508 0.35)" fill="none"/>
        <g id="编组-31" data-name="编组" clip-path="url(#clip-path-13)">
          <path id="Fill_44" data-name="Fill 44" d="M0,6.172.606,7.278C1,3.642,7.369,0,7.369,0h0C2,.119,0,6.172,0,6.172" transform="translate(0.508 0.35)" fill="url(#linear-gradient-12)"/>
        </g>
      </g>
      <path id="Fill_46" data-name="Fill 46" d="M.026.854a1.091,1.091,0,0,0,.811,1.3L39.7,10.974a1.07,1.07,0,0,0,1.275-.828,1.09,1.09,0,0,0-.811-1.3L1.3.026A1.07,1.07,0,0,0,.026.854" transform="translate(283 172)" fill="#2f3a87"/>
      <g id="编组-32" data-name="编组" transform="translate(348 177)">
        <path id="Clip_49-2" data-name="Clip 49" d="M10.987,0,.533.993a.441.441,0,0,0-.486.389h0c0,.014,0,.031-.006.048h0a2.145,2.145,0,0,0,1.6,2.51h0L9.6,5.745a2.1,2.1,0,0,0,2.339-1.138h0l41.012,9.3-.6,2.725a.507.507,0,0,0,.376.6h0l5.55,1.258a.493.493,0,0,0,.447-.124h0a.515.515,0,0,0,.152-.444h0l-1.014-6.985a.5.5,0,0,0-.384-.42h0L11.14.012A.463.463,0,0,0,11.033,0h0l-.046,0" transform="translate(0.641 0.2)" fill="none"/>
        <g id="编组-33" data-name="编组" clip-path="url(#clip-path-14)">
          <path id="Fill_48" data-name="Fill 48" d="M10.987,0,.533.993a.441.441,0,0,0-.486.389h0c0,.014,0,.031-.006.048h0a2.145,2.145,0,0,0,1.6,2.51h0L9.6,5.745a2.1,2.1,0,0,0,2.339-1.138h0l41.012,9.3-.6,2.725a.507.507,0,0,0,.376.6h0l5.55,1.258a.493.493,0,0,0,.447-.124h0a.515.515,0,0,0,.152-.444h0l-1.014-6.985a.5.5,0,0,0-.384-.42h0L11.14.012A.463.463,0,0,0,11.033,0h0l-.046,0" transform="translate(0.641 0.2)" fill="url(#linear-gradient-13)"/>
        </g>
      </g>
      <g id="编组-34" data-name="编组" transform="translate(287 170)">
        <path id="Fill_50" data-name="Fill 50" d="M30.876,13.778a3.8,3.8,0,0,0,1.642-7.427L4.6.091A3.8,3.8,0,0,0,2.959,7.519Z" transform="translate(94.169 22.109)" fill="#2f3a87"/>
        <path id="Fill_52" data-name="Fill 52" d="M12.567,0,1.222,1.456A.5.5,0,0,0,.8,1.844L.012,5.4a.5.5,0,0,0,.219.533L9.89,12.1l.044-.2.7-3.171Z" transform="translate(0.495 0.532)" fill="#fcdacb"/>
      </g>
      <g id="编组-35" data-name="编组" transform="translate(297 170)">
        <path id="Clip_55-2" data-name="Clip 55" d="M3.5,0,2.693.1.751,8.787.043,11.942l-.043.2.688.435a.663.663,0,0,0,.159.065h0l5.4,1.2a.5.5,0,0,0,.159.007h0L99.087,34.4a.5.5,0,0,0,.6-.379h0l2.6-11.606a.5.5,0,0,0-.378-.6h0L9.21,1.266a.527.527,0,0,0-.141-.058h0l-5.4-1.2A.577.577,0,0,0,3.559,0h0A.477.477,0,0,0,3.5,0" transform="translate(0.64 0.425)" fill="none"/>
        <g id="编组-36" data-name="编组" clip-path="url(#clip-path-15)">
          <path id="Fill_54" data-name="Fill 54" d="M3.5,0,2.693.1.751,8.787.043,11.942l-.043.2.688.435a.663.663,0,0,0,.159.065h0l5.4,1.2a.5.5,0,0,0,.159.007h0L99.087,34.4a.5.5,0,0,0,.6-.379h0l2.6-11.606a.5.5,0,0,0-.378-.6h0L9.21,1.266a.527.527,0,0,0-.141-.058h0l-5.4-1.2A.577.577,0,0,0,3.559,0h0A.477.477,0,0,0,3.5,0" transform="translate(0.64 0.425)" fill="url(#linear-gradient-14)"/>
        </g>
      </g>
      <g id="编组-37" data-name="编组" transform="translate(297 179)">
        <path id="Clip_57-2" data-name="Clip 57" d="M.7,0,99.278,22.088l-.736,3.307L.837,3.681,0,3.149" transform="translate(0.68 0.258)" fill="none"/>
        <g id="编组-38" data-name="编组" clip-path="url(#clip-path-16)">
          <path id="Fill_56" data-name="Fill 56" d="M1.581.342.7,0,0,3.149l.837.531,97.7,21.714.736-3.307" transform="translate(0.68 0.258)" fill="url(#linear-gradient-15)"/>
        </g>
      </g>
      <g id="编组-39" data-name="编组" transform="translate(397 192)">
        <path id="Clip_59-2" data-name="Clip 59" d="M2.507.4.012,12.283a.513.513,0,0,0,.365.61h0l6.79,1.6a.482.482,0,0,0,.574-.387h0L10.234,2.225a.512.512,0,0,0-.365-.61h0L3.081.013A.471.471,0,0,0,2.974,0h0a.486.486,0,0,0-.467.4" transform="translate(0.296 0.415)" fill="none"/>
        <g id="编组-40" data-name="编组" clip-path="url(#clip-path-17)">
          <path id="Fill_58" data-name="Fill 58" d="M2.507.4.012,12.283a.513.513,0,0,0,.365.61h0l6.79,1.6a.482.482,0,0,0,.574-.387h0L10.234,2.225a.512.512,0,0,0-.365-.61h0L3.081.013A.471.471,0,0,0,2.974,0h0a.486.486,0,0,0-.467.4" transform="translate(0.296 0.415)" fill="url(#linear-gradient-16)"/>
        </g>
      </g>
      <text id="Love" transform="translate(187 132)" fill="#393a94" font-size="29" font-family="SegoeUI, Segoe UI"><tspan x="0" y="31" xml:space="preserve"> Love</tspan></text>
      <path id="Fill_62" data-name="Fill 62" d="M20.991,5.511a5.875,5.875,0,0,1-1.126,3.8l-.457.548-8.137,9.782a.985.985,0,0,1-1.518,0L1.763,10.036l-.111-.11-.567-.684A5.876,5.876,0,0,1,.011,5.468,5.809,5.809,0,0,1,5.446.008,5.716,5.716,0,0,1,10.5,2.551,5.72,5.72,0,0,1,15.555.008a5.811,5.811,0,0,1,5.437,5.5" transform="translate(167 147)" fill="#42469a"/>
      <g id="编组-41" data-name="编组" transform="translate(15)">
        <path id="Clip_65-2" data-name="Clip 65" d="M0,0H75.549V75.145H0Z" transform="translate(0.608 0.004)" fill="none"/>
        <g id="编组-42" data-name="编组" clip-path="url(#clip-path-18)">
          <path id="Fill_64" data-name="Fill 64" d="M75.549,75.145H38.476C17.611,75.145-.181,58.1,0,37.256a37.613,37.613,0,1,1,67.9,22.62Z" transform="translate(0.608 0.004)" fill="#ef8c6f"/>
        </g>
      </g>
      <g id="编组-43" data-name="编组" transform="translate(14)">
        <path id="Clip_67-2" data-name="Clip 67" d="M0,37.442c-.183,20.947,17.72,38.08,38.717,38.08H76.024S-5.967,44.38,39.413.032h0C38.889.011,38.37,0,37.85,0h0A37.8,37.8,0,0,0,0,37.442" transform="translate(0.611 0.004)" fill="none"/>
        <g id="编组-44" data-name="编组" clip-path="url(#clip-path-19)">
          <path id="Fill_66" data-name="Fill 66" d="M0,37.442c-.183,20.947,17.72,38.08,38.717,38.08H76.024S-5.967,44.38,39.413.032h0C38.889.011,38.37,0,37.85,0h0A37.8,37.8,0,0,0,0,37.442" transform="translate(0.611 0.004)" fill="url(#linear-gradient-17)"/>
        </g>
      </g>
      <path id="Fill_68" data-name="Fill 68" d="M17.627,27.495a4.388,4.388,0,0,1-6.58.04l-9.3-10.445A7.221,7.221,0,0,1,2.558,6.863l11.789,13.7,15.36-18A7.336,7.336,0,0,1,40,1.721Z" transform="translate(35 26)" fill="#fff"/>
    </g>
  </g>
</svg>
