<svg id="delivery" xmlns="http://www.w3.org/2000/svg" width="41.629" height="41.997" viewBox="0 0 41.629 41.997">
  <g id="Group_1990" data-name="Group 1990" transform="translate(0)">
    <g id="Group_1989" data-name="Group 1989" transform="translate(0)">
      <g id="Group_2014" data-name="Group 2014" transform="translate(0)">
        <g id="leader" transform="translate(0)">
          <g id="Group_2005" data-name="Group 2005" transform="translate(0 7.69)">
            <g id="Group_2004" data-name="Group 2004">
              <path id="Path_5675" data-name="Path 5675" d="M29.174,31.946h-6.3v-5.6a3.5,3.5,0,0,0-3.5-3.5h-4.2V19l9.505-6.79a.694.694,0,0,0,.154-.987l-2.1-2.8a.7.7,0,0,0-.959-.154L14.6,13.236a4.9,4.9,0,1,0-7.748,1.211H6.076a.7.7,0,0,0-.518.231L1.036,19.7a3.5,3.5,0,0,0,.14,4.816l3.7,3.724a.7.7,0,0,0,1.071-.091l.826-1.169V39.645a.7.7,0,0,0,.7.7h4.2a.7.7,0,0,0,.7-.7v-11.2h4.9v3.5h-2.1a.7.7,0,0,0-.7.7v7a.7.7,0,0,0,.7.7h14a.7.7,0,0,0,.7-.7v-7A.7.7,0,0,0,29.174,31.946Zm-22.4-21a3.5,3.5,0,1,1,3.5,3.5A3.5,3.5,0,0,1,6.776,10.947Zm5.166,4.9-.966,1.932-.966-1.932Zm-5.166,7.5-1.12-1.2,1.12-1.12Zm4.9,3.7a.7.7,0,0,0-.7.7v11.2h-2.8v-19.6a.7.7,0,0,0-1.2-.5l-2.8,2.8a.7.7,0,0,0,0,.98l2.289,2.387L5.285,26.668,2.149,23.546a2.1,2.1,0,0,1-.077-2.9l4.319-4.795H8.442l1.911,3.815a.7.7,0,0,0,1.246,0l2.023-4.039,8.4-5.817,1.267,1.687L14.07,18.08a.7.7,0,0,0-.294.567v4.9a.7.7,0,0,0,.7.7h4.9a2.1,2.1,0,0,1,2.1,2.1v5.6h-2.8v-4.2a.7.7,0,0,0-.7-.7Zm16.8,11.9h-12.6v-5.6h12.6Z" transform="translate(-0.144 -6.038)" fill="#9775f9"/>
            </g>
          </g>
          <g id="Group_2007" data-name="Group 2007" transform="translate(29.03)">
            <g id="Group_2006" data-name="Group 2006">
              <path id="Path_5676" data-name="Path 5676" d="M34.837,5.6a4.9,4.9,0,0,1-4.9-4.9.7.7,0,0,0-1.4,0,4.9,4.9,0,0,1-4.9,4.9.7.7,0,0,0,0,1.4,4.9,4.9,0,0,1,4.9,4.9.7.7,0,0,0,1.4,0,4.9,4.9,0,0,1,4.9-4.9.7.7,0,0,0,0-1.4Zm-5.6,3.416A6.355,6.355,0,0,0,26.522,6.3a6.356,6.356,0,0,0,2.716-2.716A6.356,6.356,0,0,0,31.953,6.3,6.356,6.356,0,0,0,29.238,9.015Z" transform="translate(-22.938)" fill="#9775f9"/>
            </g>
          </g>
          <g id="Group_2009" data-name="Group 2009" transform="translate(21.616 17.633)">
            <g id="Group_2008" data-name="Group 2008" transform="translate(0 0)">
              <rect id="Rectangle_2138" data-name="Rectangle 2138" width="2.366" height="1.4" transform="translate(0 1.399) rotate(-36.251)" fill="#9775f9"/>
            </g>
          </g>
          <g id="Group_2011" data-name="Group 2011" transform="translate(25.121 11.334)">
            <g id="Group_2010" data-name="Group 2010" transform="translate(0 0)">
              <rect id="Rectangle_2139" data-name="Rectangle 2139" width="8.679" height="1.4" transform="matrix(0.806, -0.592, 0.592, 0.806, 0, 5.135)" fill="#9775f9"/>
            </g>
          </g>
          <g id="Group_2013" data-name="Group 2013" transform="translate(25.139 7.815)">
            <g id="Group_2012" data-name="Group 2012" transform="translate(0 0)">
              <rect id="Rectangle_2140" data-name="Rectangle 2140" width="5.046" height="1.4" transform="translate(0 2.799) rotate(-33.692)" fill="#9775f9"/>
            </g>
          </g>
        </g>
      </g>
    </g>
  </g>
</svg>
