<svg xmlns="http://www.w3.org/2000/svg" width="56.915" height="43.305" viewBox="0 0 56.915 43.305">
  <g id="icon_and_text_2" data-name="icon and text 2" transform="translate(0 -43.774)">
    <path id="Path_3476" data-name="Path 3476" d="M55.024,18.621,32.337,7.538a9.292,9.292,0,0,0-7.237,0L1.891,18.621A2.8,2.8,0,0,0,0,21.1c0,.587.261,1.63,1.891,2.477l1.891.913V34.92A3.194,3.194,0,0,0,1.76,37.854a3.237,3.237,0,0,0,1.956,2.934L.782,50.11H9L6.063,40.787A3.159,3.159,0,0,0,6,34.92V25.6l3.455,1.7v13.56a1.052,1.052,0,0,0,.2.587A23.677,23.677,0,0,0,28.425,50.11a23.543,23.543,0,0,0,18.711-8.671,1.052,1.052,0,0,0,.2-.587v-13.5l7.693-3.781A2.8,2.8,0,0,0,56.915,21.1,2.914,2.914,0,0,0,55.024,18.621ZM45.245,40.527a21.8,21.8,0,0,1-16.82,7.563A21.8,21.8,0,0,1,11.6,40.527V28.2l13.5,6.454a8.792,8.792,0,0,0,3.586.717,7.939,7.939,0,0,0,3.651-.782L45.245,28.27Zm8.866-18.776L46.288,25.6a.749.749,0,0,0-.717.391L31.424,32.834a7.238,7.238,0,0,1-5.476,0L8.54,24.489l20.015-2.347a1.015,1.015,0,0,0-.2-2.021L5.15,22.859,2.8,21.751a1.315,1.315,0,0,1-.717-.587c0-.065.13-.326.717-.587L26.013,9.429a6.735,6.735,0,0,1,2.673-.522,6.608,6.608,0,0,1,2.738.522L54.112,20.512c.587.261.717.522.717.652A1.793,1.793,0,0,1,54.112,21.751Z" transform="translate(0 36.97)" fill="#f67362"/>
  </g>
</svg>
